<svg data-v-0dd9719b="" version="1.0" xmlns="http://www.w3.org/2000/svg"
    xmlns:xlink="http://www.w3.org/1999/xlink" width="100%" height="100%"
    viewBox="0 0 340.000000 250.000000" preserveAspectRatio="xMidYMid meet"
    color-interpolation-filters="sRGB" style="margin: auto;">
    <!-- <rect data-v-0dd9719b="" x="0" y="0" width="100%" height="100%" fill="#339966" fill-opacity="1"
        class="background"></rect> -->
    <g data-v-0dd9719b="" fill="#feffff" class="bordersvg b-d1"
        transform="translate(50.36000061035156,80.75)">
        <polyline stroke="#feffff" stroke-width="3" fill-opacity="0" fill="#339966"
            points="114.63999938964844,30 114.63999938964844,10 239.27999877929688,10 239.27999877929688,88.5 114.63999938964844,88.5 114.63999938964844,68.5"></polyline>
        <polyline stroke="#feffff" stroke-width="3" fill-opacity="0" fill="#339966"
            points="124.63999938964844,10 124.63999938964844,0 249.27999877929688,0 249.27999877929688,78.5 239.27999877929688,78.5"></polyline>
        <g transform="translate(-10,30)">
            <g>
                <rect data-gra="graph-name-bg" stroke-width="2" class="i-icon-bg" x="0" y="0"
                    width="249.27999877929688" height="38.5" fill-opacity="0"></rect> <!----> <!---->
            </g>
            <g transform="translate(10,3)">
                <g data-gra="path-name" fill-rule="" class="tp-name">
                    <g transform="scale(1)">
                        <g>
                            <path
                                d="M10.97-4.72L14.47-21.71 21.71-21.71 15.85 0 5.9 0 0-21.71 7.28-21.71 10.78-4.72 10.97-4.72ZM34.28-17.52L40.8-17.52 40.8 0 35.5 0 34.78-2.93Q32.04 0.38 28.23 0.38L28.23 0.38Q26.85 0.38 25.66 0 24.46-0.38 23.85-1.1L23.85-1.1Q23.5-1.52 23.33-3.2 23.16-4.88 23.16-8.3L23.16-8.3 23.16-17.52 29.67-17.52 29.67-8.38Q29.67-7.62 29.71-6.59 29.75-5.56 29.94-5.29L29.94-5.29Q30.21-4.91 31.46-4.91L31.46-4.91 32.07-4.95Q33.14-4.99 34.28-5.45L34.28-5.45 34.28-17.52ZM54.55-4.57Q55.5-4.57 58.09-4.76L58.09-4.76Q58.43-4.76 59.35-4.84L59.35-4.84 59.92-0.91Q56.99 0.46 52.3 0.46L52.3 0.46Q47.92 0.46 45.58-1.75 43.23-3.96 43.23-8.42L43.23-8.42Q43.23-10.7 43.82-12.84 44.42-14.97 45.18-15.81L45.18-15.81Q45.98-16.65 48.15-17.26 50.32-17.87 52.45-17.87L52.45-17.87Q55.88-17.87 57.6-16.65 59.31-15.43 59.84-13.28 60.38-11.12 60.38-7.5L60.38-7.5Q57.79-7.35 55.31-7.35L55.31-7.35 49.9-7.35Q49.9-6.13 50.41-5.52 50.93-4.91 51.88-4.74 52.83-4.57 54.55-4.57L54.55-4.57ZM50.28-13.33Q50.05-13.22 49.94-12.34 49.82-11.47 49.79-10.36L49.79-10.36 51.77-10.36Q53.56-10.36 54.36-10.4L54.36-10.4Q54.36-12.23 53.84-12.99 53.33-13.75 52.07-13.75L52.07-13.75Q51.04-13.75 50.28-13.33L50.28-13.33ZM95.84-21.71L96.72 0 90.32 0 89.82-11.96Q89.71-15.5 89.55-17.33L89.55-17.33 89.44-17.33Q88.98-15.88 88.37-12.84L88.37-12.84 88.18-11.88 85.55 0 79.16 0 76.95-10.7 76.57-12.61Q75.77-16.15 75.46-17.33L75.46-17.33 75.35-17.33Q75.19-15.43 75.08-11.12L75.08-11.12Q75.04-10.86 75.04-10.28L75.04-10.28 74.7 0 68.26 0 69.18-21.71 80.07-21.71 81.94-12.34 82.39-9.83Q82.7-11.01 82.96-12.46L82.96-12.46 84.72-21.71 95.84-21.71ZM110.51-17.52L117.4-17.52 112.83-2.86Q111.5 1.37 110.43 3.29 109.36 5.22 108.3 5.98L108.3 5.98Q107.69 6.4 106.37 6.63 105.06 6.86 103.53 6.86L103.53 6.86Q101.25 6.86 99.88 6.44L99.88 6.44Q99.84 5.52 99.95 4.21 100.07 2.89 100.26 1.98L100.26 1.98Q101.86 2.06 103.38 2.06L103.38 2.06Q104.52 2.06 105.1 2.02L105.1 2.02Q105.67 0.91 106.16-0.3L106.16-0.3 103.53-0.46 97.67-17.52 104.56-17.52 107.61-5.26 107.65-4.53 107.76-4.53 110.51-17.52ZM142.88-7.16L144.75 0 137.55 0 136.26-5.49Q136.18-5.79 136.01-6.53 135.84-7.28 135.61-7.64 135.38-8 134.96-8.11L134.96-8.11Q133.89-8.08 131.84-8.08L131.84-8.08 131.84 0 124.98 0 124.98-21.52Q129.59-21.86 133.59-21.86L133.59-21.86Q137.21-21.86 139.46-21.27 141.7-20.68 142.83-19.26 143.95-17.83 143.95-15.35L143.95-15.35Q143.95-13.03 142.88-11.71 141.82-10.4 139.46-10.13L139.46-10.13 139.46-9.9Q140.79-9.79 141.68-9.05 142.58-8.3 142.88-7.16L142.88-7.16ZM131.84-12.38Q132.18-12.34 133.17-12.34L133.17-12.34Q136.1-12.34 136.6-12.84L136.6-12.84Q137.06-13.29 137.06-14.97L137.06-14.97Q137.06-16.53 136.24-17.1 135.42-17.67 133.55-17.67L133.55-17.67Q133.13-17.67 131.84-17.6L131.84-17.6 131.84-12.38ZM157.36-4.57Q158.31-4.57 160.9-4.76L160.9-4.76Q161.24-4.76 162.16-4.84L162.16-4.84 162.73-0.91Q159.8 0.46 155.11 0.46L155.11 0.46Q150.73 0.46 148.39-1.75 146.05-3.96 146.05-8.42L146.05-8.42Q146.05-10.7 146.64-12.84 147.23-14.97 147.99-15.81L147.99-15.81Q148.79-16.65 150.96-17.26 153.13-17.87 155.26-17.87L155.26-17.87Q158.69-17.87 160.41-16.65 162.12-15.43 162.65-13.28 163.19-11.12 163.19-7.5L163.19-7.5Q160.6-7.35 158.12-7.35L158.12-7.35 152.71-7.35Q152.71-6.13 153.23-5.52 153.74-4.91 154.69-4.74 155.64-4.57 157.36-4.57L157.36-4.57ZM153.09-13.33Q152.86-13.22 152.75-12.34 152.63-11.47 152.6-10.36L152.6-10.36 154.58-10.36Q156.37-10.36 157.17-10.4L157.17-10.4Q157.17-12.23 156.65-12.99 156.14-13.75 154.88-13.75L154.88-13.75Q153.85-13.75 153.09-13.33L153.09-13.33ZM179.64-4.57L180.21-0.53Q177.13 0.5 173.32 0.5L173.32 0.5Q169.05 0.5 166.94-1.66 164.82-3.81 164.82-8.38L164.82-8.38Q164.82-10.63 165.43-12.82 166.04-15.01 166.73-15.77L166.73-15.77Q167.53-16.65 169.87-17.26 172.21-17.87 174.73-17.87L174.73-17.87Q177.36-17.87 180.02-17.41L180.02-17.41Q179.95-16.46 179.78-15.18 179.6-13.9 179.41-12.91L179.41-12.91Q177.05-13.07 174.96-13.07L174.96-13.07Q172.9-13.07 172.33-12.84L172.33-12.84Q172.02-12.72 171.78-11.28 171.53-9.83 171.53-8.57L171.53-8.57Q171.53-6.89 172-6 172.48-5.1 173.51-4.76 174.54-4.42 176.29-4.42L176.29-4.42Q177.05-4.42 179.64-4.57L179.64-4.57ZM185.78-19.69Q184.48-19.69 183.55-20.57 182.61-21.45 182.61-22.66L182.61-22.66Q182.61-23.88 183.55-24.76 184.48-25.64 185.78-25.64L185.78-25.64Q187.07-25.64 187.98-24.76 188.9-23.88 188.9-22.66L188.9-22.66Q188.9-21.45 187.98-20.57 187.07-19.69 185.78-19.69L185.78-19.69ZM182.5 0L182.5-17.52 189.01-17.52 189.01 0 182.5 0ZM204.29-17.9Q207.03-17.9 208.65-16.09 210.27-14.28 210.27-9.79L210.27-9.79Q210.27-6.44 209.62-4.32 208.97-2.21 208.14-1.52L208.14-1.52Q207.3-0.84 205.22-0.42 203.15 0 200.94 0L200.94 0Q200.29 0 198.76-0.08L198.76-0.08 198.76 5.33 192.25 5.6 192.25-17.52 197.58-17.52 198.23-14.82Q199.22-16.23 200.76-17.07 202.31-17.9 204.29-17.9L204.29-17.9ZM202.76-4.65Q203.18-4.95 203.37-6.38 203.56-7.81 203.56-9.1L203.56-9.1Q203.56-11.24 203.03-12.27 202.5-13.29 200.9-13.29L200.9-13.29Q199.75-13.29 198.76-13.07L198.76-13.07 198.76-4.61 199.83-4.49Q200.33-4.46 201.24-4.46L201.24-4.46Q202.54-4.46 202.76-4.65L202.76-4.65ZM223.45-4.57Q224.4-4.57 226.99-4.76L226.99-4.76Q227.33-4.76 228.25-4.84L228.25-4.84 228.82-0.91Q225.89 0.46 221.2 0.46L221.2 0.46Q216.82 0.46 214.48-1.75 212.13-3.96 212.13-8.42L212.13-8.42Q212.13-10.7 212.73-12.84 213.32-14.97 214.08-15.81L214.08-15.81Q214.88-16.65 217.05-17.26 219.22-17.87 221.35-17.87L221.35-17.87Q224.78-17.87 226.5-16.65 228.21-15.43 228.74-13.28 229.28-11.12 229.28-7.5L229.28-7.5Q226.69-7.35 224.21-7.35L224.21-7.35 218.8-7.35Q218.8-6.13 219.32-5.52 219.83-4.91 220.78-4.74 221.73-4.57 223.45-4.57L223.45-4.57ZM219.18-13.33Q218.95-13.22 218.84-12.34 218.72-11.47 218.69-10.36L218.69-10.36 220.67-10.36Q222.46-10.36 223.26-10.4L223.26-10.4Q223.26-12.23 222.74-12.99 222.23-13.75 220.97-13.75L220.97-13.75Q219.94-13.75 219.18-13.33L219.18-13.33Z"
                                transform="translate(0, 25.639999389648438)"></path>
                        </g> <!----> <!----> <!----> <!----> <!----> <!----> <!---->
                    </g>
                </g> <!---->
            </g>
        </g>
    </g>
    <defs v-gra="od"></defs>
</svg>